# xmcd
#
# Track frame offsets:
#	150
#	21154
#	33817
#	50445
#	64394
#	82520
#	99546
#	117148
#	131777
#	149929
#	167188
#	183606
#	197566
#	213259
#	225635
#	252193
#
# Disc length: 3949 seconds
#
# Revision: 4
# Processed by: cddbd v1.5.2PL0 Copyright (c) Steve Scherf et al.
# Submitted via: audiograbber 1.83.01
#
DISCID=e10f6b10
DTITLE=Various Artist - ASK-60 Mixed Country Volume 8 Disc 1
DYEAR=2006
DGENRE=Karaoke
TTITLE0=Big and Rich - 8th of November
TTITLE1=Billy Currington - Why, Why, Why
TTITLE2=Brad Paisley - The World
TTITLE3=Carolina Rain - Get Outta My Way
TTITLE4=Carrie Underwood - Don't Forget to Remember Me
TTITLE5=Carrie Underwood - Jesus, Take the Wheel
TTITLE6=Craig Morgan - I Got You
TTITLE7=Daniella Peck - Findin' a Good Man
TTITLE8=Diamond Rio - God Only Cries
TTITLE9=Eric Church - How 'Bout You
TTITLE10=Faith Hill - The Lucky One
TTITLE11=Gretchen Wilson - California Girls
TTITLE12=Jo Dee Messina - Not Going Down
TTITLE13=Joe Nichols - Size Matters (Someday)
TTITLE14=Josh Gracin - Favorite State of Mind
TTITLE15=Data Track - Data Track
EXTD=
EXTT0=
EXTT1=
EXTT2=
EXTT3=
EXTT4=
EXTT5=
EXTT6=
EXTT7=
EXTT8=
EXTT9=
EXTT10=
EXTT11=
EXTT12=
EXTT13=
EXTT14=
EXTT15=
PLAYORDER=
